<?xml version="1.0" encoding="utf-8"?>
<!-- Generator: Adobe Illustrator 16.0.0, SVG Export Plug-In . SVG Version: 6.00 Build 0)  -->
<!DOCTYPE svg PUBLIC "-//W3C//DTD SVG 1.1//EN" "http://www.w3.org/Graphics/SVG/1.1/DTD/svg11.dtd">
<svg version="1.1" id="Layer_1" xmlns="http://www.w3.org/2000/svg" xmlns:xlink="http://www.w3.org/1999/xlink" x="0px" y="0px"
	 width="454px" height="100px" viewBox="0 0 454 100" enable-background="new 0 0 454 100" xml:space="preserve">
	<path d="M83.974,63.419l9.397,29.131L68.938,74.578L44.623,92.55l9.515-29.131L29.469,44.976h30.306l9.163-28.544l9.045,28.544
		h30.423L83.974,63.419z"/>
	<path d="M163.792,63.419l9.397,29.131l-24.433-17.972L124.441,92.55l9.515-29.131l-24.668-18.443h30.306l9.163-28.544l9.045,28.544
		h30.424L163.792,63.419z"/>
	<path d="M243.611,63.419l9.397,29.131l-24.433-17.972L204.261,92.55l9.515-29.131l-24.668-18.443h30.307l9.162-28.544l9.045,28.544
		h30.424L243.611,63.419z"/>
	<path d="M323.431,63.419l9.397,29.131l-24.434-17.972L284.08,92.55l9.514-29.131l-24.668-18.443h30.307l9.162-28.544l9.045,28.544
		h30.424L323.431,63.419z"/>
</svg>
